# xmcd
#
# Track frame offsets:
#	150
#	14356
#	24673
#	40115
#	57418
#	73045
#	89459
#	106719
#	119432
#	132717
#
# Disc length: 1960 seconds
#
# Revision: 0
# Processed by: cddbd v1.5.1PL0 Copyright (c) Steve Scherf et al.
# Submitted via: dBpowerAMP V4.0
#
DISCID=8907a60a
DTITLE=comp - Irish Partytime
DYEAR=2004
DGENRE=Country
TTITLE0=I You'r Irish/McNamara's Band/With A Shillelagh Under My Arm/Hannigans Hooley
TTITLE1=Danny Boy
TTITLE2=Black Velvet Band/When Irish Eyes Are Smiling/The Homes Of Donegal
TTITLE3=The Oul Claddagh Ring/Th Rose Of Oranmore/If I Ony Had Old Ireland Over Here
TTITLE4=Come Back Paddy Reilly
TTITLE5=Reilly's Daughter/Deicy Reilly/Whiskey In The Jar/Goodbye Mick
TTITLE6=The Rose Of Mooncoin/My Wild Irish Rose/My Lonely Rose Of Clare
TTITLE7=God Be With You Kerry
TTITLE8=The Boys From The County Armagh
TTITLE9=My Irish Molly/Its A Long Way To Tipperary/Eileen Og/Its A Great Day For The Irish
EXTD=
EXTT0=
EXTT1=
EXTT2=
EXTT3=
EXTT4=
EXTT5=
EXTT6=
EXTT7=
EXTT8=
EXTT9=
PLAYORDER=
